<?xml version="1.0" standalone="no"?>
<!DOCTYPE svg PUBLIC "-//W3C//DTD SVG 20010904//EN"
 "http://www.w3.org/TR/2001/REC-SVG-20010904/DTD/svg10.dtd">
<svg version="1.0" xmlns="http://www.w3.org/2000/svg"
 width="400.000000pt" height="400.000000pt" viewBox="0 0 400.000000 400.000000"
 preserveAspectRatio="xMidYMid meet">

<g transform="translate(0.000000,400.000000) scale(0.100000,-0.100000)"
fill="#000000" stroke="none">
<path d="M1050 3141 l0 -220 673 -3 672 -3 48 -24 c276 -137 281 -505 9 -638
l-57 -28 -300 -5 -300 -5 -3 -215 -2 -215 412 -573 412 -572 298 0 c164 0 298
2 298 5 0 3 -182 258 -405 567 -222 308 -402 565 -399 570 3 4 20 8 38 8 52 0
178 36 247 70 236 118 395 328 439 577 18 99 8 268 -20 358 -67 213 -211 384
-405 480 -168 83 -119 79 -932 83 l-723 3 0 -220z"/>
<path d="M1050 1665 l0 -1025 250 0 250 0 0 1025 0 1025 -250 0 -250 0 0
-1025z"/>
</g>
</svg>
